<svg width="75" height="75" viewBox="0 0 75 75" fill="none" xmlns="http://www.w3.org/2000/svg">
<rect width="75" height="75" rx="37.5" fill="#90C841"/>
<path d="M37 39.25C36.4672 39.2438 35.9453 39.4009 35.5045 39.7003C35.0637 39.9996 34.7253 40.4269 34.5346 40.9244C34.344 41.422 34.3104 41.966 34.4383 42.4832C34.5662 43.0005 34.8495 43.4661 35.25 43.8175V46.25C35.25 46.7141 35.4344 47.1592 35.7626 47.4874C36.0908 47.8156 36.5359 48 37 48C37.4641 48 37.9092 47.8156 38.2374 47.4874C38.5656 47.1592 38.75 46.7141 38.75 46.25V43.8175C39.1505 43.4661 39.4338 43.0005 39.5617 42.4832C39.6896 41.966 39.656 41.422 39.4654 40.9244C39.2747 40.4269 38.9363 39.9996 38.4955 39.7003C38.0547 39.4009 37.5328 39.2438 37 39.25ZM45.75 32.25V28.75C45.75 26.4294 44.8281 24.2038 43.1872 22.5628C41.5462 20.9219 39.3206 20 37 20C34.6794 20 32.4538 20.9219 30.8128 22.5628C29.1719 24.2038 28.25 26.4294 28.25 28.75V32.25C26.8576 32.25 25.5223 32.8031 24.5377 33.7877C23.5531 34.7723 23 36.1076 23 37.5V49.75C23 51.1424 23.5531 52.4777 24.5377 53.4623C25.5223 54.4469 26.8576 55 28.25 55H45.75C47.1424 55 48.4777 54.4469 49.4623 53.4623C50.4469 52.4777 51 51.1424 51 49.75V37.5C51 36.1076 50.4469 34.7723 49.4623 33.7877C48.4777 32.8031 47.1424 32.25 45.75 32.25ZM31.75 28.75C31.75 27.3576 32.3031 26.0223 33.2877 25.0377C34.2723 24.0531 35.6076 23.5 37 23.5C38.3924 23.5 39.7277 24.0531 40.7123 25.0377C41.6969 26.0223 42.25 27.3576 42.25 28.75V32.25H31.75V28.75ZM47.5 49.75C47.5 50.2141 47.3156 50.6592 46.9874 50.9874C46.6592 51.3156 46.2141 51.5 45.75 51.5H28.25C27.7859 51.5 27.3408 51.3156 27.0126 50.9874C26.6844 50.6592 26.5 50.2141 26.5 49.75V37.5C26.5 37.0359 26.6844 36.5908 27.0126 36.2626C27.3408 35.9344 27.7859 35.75 28.25 35.75H45.75C46.2141 35.75 46.6592 35.9344 46.9874 36.2626C47.3156 36.5908 47.5 37.0359 47.5 37.5V49.75Z" fill="black"/>
</svg>
